<svg xmlns="http://www.w3.org/2000/svg" viewBox="0 0 128 128">
  <defs>
    <linearGradient id="furBase" x1="0.08" x2="0.92" y1="0.04" y2="0.96">
      <stop offset="0%" stop-color="#8f6a47"/>
      <stop offset="45%" stop-color="#6f4b31"/>
      <stop offset="100%" stop-color="#2a1c14"/>
    </linearGradient>
    <radialGradient id="furGlow" cx="0.22" cy="0.18" r="0.9">
      <stop offset="0%" stop-color="#c79a66"/>
      <stop offset="38%" stop-color="#a97a50" stop-opacity="0.8"/>
      <stop offset="100%" stop-color="#a97a50" stop-opacity="0"/>
    </radialGradient>
    <pattern id="furLight" width="22" height="22" patternUnits="userSpaceOnUse" patternTransform="rotate(-16)">
      <path d="M2 3 Q6 8 5 15" fill="none" opacity="0.28" stroke="#deb887" stroke-linecap="round" stroke-width="1.8"/>
      <path d="M7 1 Q11 7 10 15" fill="none" opacity="0.3" stroke="#d0a06d" stroke-linecap="round" stroke-width="1.6"/>
      <path d="M12 5 Q15 10 14 17" fill="none" opacity="0.22" stroke="#efcf9a" stroke-linecap="round" stroke-width="1.1"/>
      <path d="M17 2 Q20 8 18 15" fill="none" opacity="0.26" stroke="#c99563" stroke-linecap="round" stroke-width="1.7"/>
      <path d="M4 11 Q8 15 7 21" fill="none" opacity="0.2" stroke="#f6ddb5" stroke-linecap="round" stroke-width="1"/>
    </pattern>
    <pattern id="furDark" width="24" height="24" patternUnits="userSpaceOnUse" patternTransform="rotate(10)">
      <path d="M3 1 Q7 7 5 16" fill="none" opacity="0.24" stroke="#4d3423" stroke-linecap="round" stroke-width="2.1"/>
      <path d="M9 4 Q13 9 11 18" fill="none" opacity="0.2" stroke="#3a2418" stroke-linecap="round" stroke-width="1.8"/>
      <path d="M15 0 Q19 7 17 16" fill="none" opacity="0.22" stroke="#6d4930" stroke-linecap="round" stroke-width="1.9"/>
      <path d="M20 5 Q23 10 21 18" fill="none" opacity="0.18" stroke="#2b190f" stroke-linecap="round" stroke-width="1.5"/>
      <path d="M8 13 Q12 18 11 24" fill="none" opacity="0.16" stroke="#7e5638" stroke-linecap="round" stroke-width="1.1"/>
    </pattern>
    <pattern id="furFine" width="16" height="16" patternUnits="userSpaceOnUse" patternTransform="rotate(-2)">
      <path d="M2 1 Q5 6 4 12" fill="none" opacity="0.16" stroke="#f4deba" stroke-linecap="round" stroke-width="0.8"/>
      <path d="M7 4 Q10 8 9 14" fill="none" opacity="0.14" stroke="#e4bf8b" stroke-linecap="round" stroke-width="0.7"/>
      <path d="M12 0 Q14 5 13 11" fill="none" opacity="0.12" stroke="#b47d53" stroke-linecap="round" stroke-width="0.7"/>
      <path d="M14 8 Q16 11 15 16" fill="none" opacity="0.1" stroke="#f7e7cb" stroke-linecap="round" stroke-width="0.6"/>
    </pattern>
    <linearGradient id="edgeShade" x1="0" x2="0.9" y1="0.05" y2="1">
      <stop offset="0%" stop-color="#000000" stop-opacity="0"/>
      <stop offset="100%" stop-color="#000000" stop-opacity="0.32"/>
    </linearGradient>
  </defs>
  <rect width="128" height="128" rx="28" fill="url(#furBase)"/>
  <rect width="128" height="128" rx="28" fill="url(#furGlow)" opacity="0.68"/>
  <rect width="128" height="128" rx="28" fill="url(#furLight)" opacity="0.82"/>
  <rect width="128" height="128" rx="28" fill="url(#furDark)" opacity="0.45"/>
  <rect width="128" height="128" rx="28" fill="url(#furFine)" opacity="0.5"/>
  <rect width="128" height="128" rx="28" fill="url(#edgeShade)"/>
  <path d="M28 84 L50 46 L66 66 L84 34 L100 84" fill="none" stroke="#eff6ff" stroke-linecap="round" stroke-linejoin="round" stroke-width="10"/>
  <circle cx="28" cy="84" r="7" fill="#eff6ff"/>
  <circle cx="50" cy="46" r="7" fill="#eff6ff"/>
  <circle cx="66" cy="66" r="7" fill="#eff6ff"/>
  <circle cx="84" cy="34" r="7" fill="#eff6ff"/>
  <circle cx="100" cy="84" r="7" fill="#eff6ff"/>
</svg>
